<svg width="260" height="262" viewBox="0 0 260 262" fill="none" xmlns="http://www.w3.org/2000/svg">
<g clip-path="url(#clip0_25_3266)">
<path d="M84.3724 56.7847C92.6485 52.1542 97.1677 50.3649 106.534 48.0499C101.613 53.6274 99.2376 56.6869 94.7352 63.258C88.2285 63.6148 85.1024 63.9908 79.1867 65.0745C75.5248 69.1062 73.7872 71.253 70.5557 75.8142C76.199 75.6483 79.2063 75.6938 85.494 76.0343C81.5596 82.8765 79.7207 86.508 76.4392 93.9588C69.9802 92.7429 66.9222 92.2182 61.2674 91.3307C58.1272 97.6484 56.7846 100.883 54.5457 107.645C60.5841 109.667 63.9251 110.744 71.1286 112.983C68.2403 121.805 67.0355 126.432 65.1597 135.308C54.3734 130.341 49.7148 127.786 42.5572 122.915C47.7573 93.4748 59.9952 74.0791 84.3604 56.7651L84.3724 56.7847Z" fill="#DF6354"/>
<path d="M65.2209 135.364C73.064 103.413 85.2053 73.0961 107.008 47.9483C112.851 46.5467 115.851 46.0733 121.956 45.6525C124.788 45.4555 126.589 46.0756 127.44 47.4493C128.282 48.829 128.297 51.4508 127.548 55.505C126.799 59.5591 125.251 64.6371 122.825 70.8278C120.708 76.2263 118.467 81.0026 116.058 84.9545C113.64 88.9125 111.155 92.0788 108.624 94.3335C107.017 95.7699 105.117 96.8349 102.964 97.5303C103.914 99.1116 104.501 100.646 104.706 102.105C104.855 103.075 104.86 105.086 104.768 108.215C104.671 111.335 104.57 113.679 104.376 115.341C103.081 126.601 102.129 137.96 101.523 149.269C95.7669 147.424 92.9712 146.471 87.6172 144.514C88.102 132.983 89.1203 121.314 90.6986 109.882C91.2886 105.589 91.5731 102.798 91.3945 101.471C91.1696 99.7152 90.5159 98.7312 89.4943 98.5085C89.0907 98.419 88.8919 98.3791 88.5042 98.2935C83.2305 111.832 78.9404 125.75 75.674 139.917C71.2901 138.12 69.1924 137.211 65.223 135.39L65.2209 135.364ZM96.3521 80.0847C98.1815 80.3115 99.1022 80.4346 100.971 80.7044C101.471 80.7755 102.65 80.4861 104.497 79.8165C105.408 79.5289 106.447 78.6135 107.623 77.0642C108.799 75.5149 109.845 73.7091 110.784 71.6603C112.165 68.6433 112.888 66.3504 112.962 64.7343C113.033 63.1339 112.135 62.299 110.277 62.2238C108.477 62.1541 107.59 62.1309 105.809 62.116C101.861 68.9131 99.959 72.5294 96.358 80.0945L96.3521 80.0847Z" fill="#DF6354"/>
<path d="M99.809 148.704C109.066 113.635 119.781 78.7781 134.748 45.6775C140.984 46.1305 144.136 46.6112 150.413 48.1665C153.323 48.8888 155.33 50.3093 156.543 52.3211C157.756 54.333 158.464 57.6064 158.67 62.2591C158.883 66.9216 158.477 72.4848 157.23 79.1114C156.141 84.876 154.695 89.8785 152.866 93.9875C151.036 98.0966 148.935 101.364 146.619 103.663C145.138 105.13 143.304 106.194 141.111 106.847C142.3 108.619 143.084 110.302 143.447 111.865C143.7 112.919 143.912 115.072 144.091 118.359C144.261 121.652 144.327 124.094 144.251 125.818C143.764 137.257 143.139 148.712 142.414 160.135C136.428 158.858 133.365 158.149 127.168 156.572C127.694 144.358 128.311 132.143 129.011 119.93C129.301 115.256 129.318 112.159 128.978 110.675C128.535 108.717 127.703 107.573 126.526 107.271C126.069 107.16 125.843 107.097 125.396 106.98C121.016 122.161 116.848 137.401 112.89 152.701C107.529 151.151 104.915 150.342 99.8384 148.686L99.809 148.704ZM131.45 86.4686C133.486 86.9455 134.51 87.1937 136.563 87.6999C137.114 87.8336 138.325 87.6186 140.186 87.061C141.109 86.8343 142.057 85.8802 143.024 84.2302C143.991 82.5802 144.745 80.6035 145.32 78.3332C146.168 74.9702 146.436 72.3503 146.149 70.4045C145.868 68.4686 144.737 67.2522 142.727 66.7731C140.795 66.3132 139.847 66.0998 137.926 65.7007C135.361 73.6672 134.057 77.8453 131.434 86.4648L131.45 86.4686Z" fill="#DF6354"/>
<path d="M151.31 102.816C154.411 89.7429 157.395 76.3664 163.523 64.4278C167.504 56.6714 171.13 54.232 175.232 56.7108C179.436 59.2478 182.742 65.4607 185.601 75.3011C189.263 87.8874 190.354 101.209 189.308 114.264C188.345 126.22 186.011 135.819 182.973 143.295C179.936 150.772 176.208 156.522 172.179 160.414C168.151 164.307 163.89 165.992 159.412 165.273C154.861 164.545 151.503 161.922 149.433 157.317C147.364 152.713 146.468 145.675 146.654 136.34C146.879 125.263 148.778 113.541 151.32 102.81L151.31 102.816ZM163.302 106.524C161.353 117.524 160.346 125.91 160.801 131.19C161.266 136.464 162.769 139.414 165.344 140.005C167.988 140.621 170.54 138.688 172.846 134.369C175.158 130.06 177.416 121.945 178.826 110.038C180.019 100.021 179.763 92.7546 178.823 87.824C177.883 82.8935 176.41 79.9931 174.379 79.0838C172.429 78.2191 170.669 79.7352 168.841 83.8029C167.014 87.8706 165.258 95.4246 163.286 106.52L163.302 106.524Z" fill="#DF6354"/>
<path d="M179.488 166.106C188.281 133.709 193.064 100.658 187.777 67.1821C192.384 71.0842 194.503 73.2154 198.346 77.7578C200.128 79.8658 201.635 82.1822 203.04 84.574C204.444 86.9659 206.169 90.1691 208.038 94.2243C209.907 98.2795 211.687 102.738 212.922 107.824C214 112.254 214.355 115.984 214.143 119.026C213.931 122.068 213.217 124.463 212.134 126.144C211.452 127.204 210.452 127.962 209.146 128.396C210.125 129.892 210.811 131.259 211.21 132.507C211.475 133.338 211.839 135.036 212.211 137.561C212.583 140.086 212.749 141.877 212.764 143.156C213.003 153.32 212.475 158.42 210.294 166.838C206.725 167.148 204.772 167.225 200.598 167.247C202.391 157.026 202.76 150.961 202.338 139.044C202.22 135.196 201.884 132.555 201.494 131.277C200.971 129.582 200.242 128.563 199.353 128.273C199.015 128.157 198.845 128.1 198.496 127.99C196.659 141.661 194.13 153.713 190.325 166.974C186.176 166.752 184.001 166.575 179.484 166.121L179.488 166.106ZM199.253 109.729C200.76 110.462 201.505 110.826 202.951 111.568C203.344 111.772 204.096 111.729 205.13 111.488C205.658 111.408 206.043 110.717 206.236 109.405C206.434 108.102 206.397 106.5 206.128 104.584C205.736 101.762 205.095 99.4557 204.336 97.5958C203.578 95.736 202.546 94.285 201.2 93.2666C199.903 92.2852 199.23 91.7967 197.869 90.8413C198.855 98.1596 199.144 101.957 199.247 109.72L199.253 109.729Z" fill="#DF6354"/>
<path d="M213.596 129.266C214.297 131.846 214.388 134.703 214.019 137.707C227.163 145.329 234.347 152.533 232.936 157.944C229.633 170.576 180.889 168.755 124.067 153.885C67.246 139.015 23.8514 116.737 27.1545 104.105C28.5124 98.9142 37.5587 96.1631 51.6984 95.756C52.2021 94.4689 52.5895 93.1454 52.9705 91.7452C53.4088 90.1088 54.2676 89.008 55.3182 88.3539C25.954 86.1785 6.06544 89.2858 3.7797 97.9953C-0.275043 113.488 52.9789 140.842 122.715 159.085C192.452 177.328 252.262 179.556 256.317 164.063C258.667 155.086 241.778 142.136 213.596 129.266Z" fill="#AAAAAA"/>
<path d="M70.5528 188.879C61.6144 182.343 57.6446 178.562 51.0827 170.442C49.3871 166.979 48.6195 165.192 47.3158 161.558C51.5503 159.257 56.7094 156.272 70.1067 148.573C75.9482 150.823 78.9828 151.926 85.2481 154.079C83.2391 167.358 82.6193 173.803 82.095 185.841C84.8089 187.166 86.1892 187.801 89.0124 189.019C88.5951 193.287 88.4313 195.374 88.1619 199.444C85.5724 198.191 84.3137 197.536 81.8471 196.154C81.8368 199.637 81.8728 201.346 81.993 204.669C77.6926 201.909 75.6612 200.382 71.8404 197.088C71.2376 193.898 70.9761 192.259 70.5392 188.901L70.5528 188.879ZM69.5851 178.972C69.1847 173.055 69.1174 169.996 69.2296 163.752C63.1732 167.137 60.6774 168.524 57.1908 170.422C61.8295 174.024 64.3301 175.747 69.5851 178.972Z" fill="#AAAAAA"/>
<path d="M88.9605 183.695C89.9878 174.089 93.2004 167.714 98.5347 165.038C103.869 162.362 111.607 162.396 121.708 165.029C126.562 166.297 130.379 167.715 133.158 169.322C135.943 170.94 138.03 172.647 139.452 174.451C140.875 176.255 141.835 178.005 142.354 179.715C142.873 181.425 143.074 183.317 142.969 185.367C142.763 189.278 141.832 193.121 140.206 196.905C136.574 205.388 131.97 210.867 126.954 214.153C121.949 217.434 115.659 218.786 107.63 216.689C103.128 215.514 99.7935 213.655 97.3304 211.398C94.8672 209.142 92.9212 206.368 91.4242 203.187C90.3523 200.901 89.5476 198.063 89.0809 194.656C88.6239 191.243 88.5484 187.598 88.9605 183.695ZM105.617 189.727C104.249 196.199 104.1 200.599 104.922 203.225C105.745 205.851 107.333 207.486 109.81 208.137C111.441 208.566 112.979 208.447 114.462 207.797C115.945 207.148 117.3 205.892 118.524 204.005C119.749 202.117 121.077 199.012 122.485 194.542C124.545 187.971 125.211 183.121 124.372 180.358C123.532 177.595 121.512 175.779 118.378 174.952C115.17 174.116 112.568 174.736 110.61 176.829C108.652 178.923 106.966 183.334 105.617 189.727Z" fill="#AAAAAA"/>
<path d="M161.043 209.461C150.343 211.503 144.652 211.899 133.093 211.189C134.961 207.298 135.886 205.271 137.715 201.095C152.537 192.849 167.445 184.765 182.444 176.853C188.436 177.589 191.325 177.881 196.906 178.317C191.322 188.044 187.913 192.446 180.361 200.004C183.007 199.478 184.304 199.183 186.84 198.523C184.066 200.885 182.612 202 179.618 204.068C177.21 205.026 175.986 205.463 173.488 206.275C171.017 208.319 169.75 209.279 167.161 211.086C162.622 213.129 160.272 213.985 155.463 215.387C157.746 213.123 158.86 211.933 161.053 209.455L161.043 209.461ZM167.188 201.929C170.663 197.327 172.339 194.882 175.458 189.718C165.949 194.725 161.093 197.35 151.774 202.536C158.091 202.617 161.182 202.491 167.172 201.925L167.188 201.929Z" fill="#AAAAAA"/>
</g>
<defs>
<clipPath id="clip0_25_3266">
<rect width="192.194" height="185.994" fill="white" transform="translate(159.422 0.563965) rotate(58.6259)"/>
</clipPath>
</defs>
</svg>
