<svg width="332" height="270" viewBox="0 0 332 270" fill="none" xmlns="http://www.w3.org/2000/svg">
<g clip-path="url(#clip0_25_4604)">
<path d="M76.4397 165.78C78.7885 167.946 80.0328 168.989 82.6768 170.985C83.4194 173.311 84.2091 175.217 84.9772 176.763C86.2247 179.264 87.4672 181.147 88.7513 182.384C89.7113 183.311 90.3387 183.519 90.6671 183.029C90.9986 182.527 91.0447 181.62 90.8084 180.295C90.5802 179.039 90.1135 177.693 89.3649 176.27C88.6319 174.839 87.1255 172.912 84.9012 170.477C81.2445 166.477 78.4359 162.743 76.4334 159.382C74.422 156.006 72.9246 152.623 72.2464 149.027C71.7997 146.674 71.8675 144.657 72.4996 142.935C73.1318 141.213 74.3664 140.086 76.1724 139.571C77.9784 139.057 80.5761 139.411 83.9426 140.721C88.0737 142.314 91.254 144.808 93.2915 148.282C95.3412 151.761 96.3474 156.535 96.6127 162.359C92.9578 160.999 91.1875 160.301 87.7591 158.831C87.431 156.379 86.9037 154.425 86.1151 153.006C85.342 151.577 84.2758 150.556 82.9477 149.924C81.867 149.398 81.0669 149.394 80.5817 149.881C80.0965 150.368 79.8986 151.156 79.9913 152.232C80.0582 153.011 80.3613 153.841 80.8392 154.705C81.3293 155.572 82.3528 156.752 83.9595 158.207C87.9362 161.847 90.8511 164.94 92.6093 167.447C94.3799 169.957 95.6803 172.604 96.5328 175.354C97.3975 178.108 97.8952 180.907 98.1068 183.696C98.3718 186.972 98.2134 189.622 97.7681 191.578C97.3229 193.534 96.596 194.482 95.581 194.446C94.5659 194.41 93.191 193.267 91.3874 191.076C88.2299 187.223 85.6915 182.97 83.2055 178.718C80.7317 174.469 78.2979 170.219 76.385 165.739L76.4397 165.78Z" fill="#B1E0C6"/>
<path d="M104.009 149.119C111.171 151.655 114.871 152.896 122.441 155.331C126.565 156.66 129.398 159.271 130.828 163.2C132.245 167.126 132.319 172.098 131.214 177.935C130.079 183.936 128.221 188.127 125.739 190.575C123.257 193.023 120.15 193.346 116.327 191.533C114.254 190.544 113.231 190.047 111.211 189.007C110.832 197.088 110.789 200.977 110.993 208.4C107.92 206.29 106.446 205.172 103.612 202.81C101.428 184.783 102.343 167.152 103.99 149.14L104.009 149.119ZM111.979 177.759C112.954 178.191 113.445 178.415 114.423 178.834C116.354 179.667 117.801 179.661 118.757 178.787C119.714 177.914 120.331 176.543 120.603 174.645C120.858 172.809 120.739 171.096 120.196 169.545C119.656 167.982 118.361 166.834 116.355 166.086C115.125 165.625 114.517 165.397 113.315 164.93C112.667 170.142 112.399 172.71 111.97 177.744L111.979 177.759Z" fill="#B1E0C6"/>
<path d="M147.04 214.71C142.464 213.602 140.148 212.929 135.73 211.43C134.381 214.746 133.735 216.372 132.531 219.543C128.851 218.177 127.061 217.408 123.59 215.703C130.007 197.392 138.629 180.119 147.3 162.807C152.575 164.299 155.28 165.037 160.621 166.428C159.779 186.089 158.923 205.705 156.038 225.199C152.076 224.741 150.078 224.403 146.107 223.536C146.5 220.108 146.687 218.332 147.04 214.71ZM148.169 202.456C148.818 194.053 149.096 189.635 149.646 180.523C145.772 188.705 143.92 192.675 140.552 200.297C143.561 201.221 145.087 201.656 148.157 202.453L148.169 202.456Z" fill="#B1E0C6"/>
<path d="M189.25 206.988C192.038 208.694 193.385 209.449 195.937 210.711C193.194 214.034 190.468 216.758 187.808 218.988C185.146 221.229 182.602 222.978 180.149 224.238C177.697 225.498 175.184 226.296 172.501 226.457C169.257 226.652 166.969 225.973 165.567 224.442C164.165 222.91 163.491 220.129 163.488 215.925C163.485 211.721 164.623 206.247 167.071 199.417C170.339 190.31 174.454 183.138 179.589 178.63C184.725 174.122 190.432 172.577 196.486 173.858C201.221 174.864 204.347 177.068 205.798 180.281C207.262 183.497 207.323 187.874 205.84 193.164C201.413 194 199.196 194.43 194.756 195.263C195.159 193.664 195.339 192.451 195.3 191.666C195.245 190.351 194.907 189.262 194.299 188.442C193.691 187.623 192.816 187.112 191.683 186.927C189.13 186.506 186.524 187.751 183.93 190.616C181.993 192.75 180.056 196.302 178.065 201.036C175.599 206.903 174.448 210.758 174.607 212.863C174.765 214.967 175.8 216.006 177.76 216.046C179.668 216.084 181.518 215.306 183.347 213.773C185.177 212.241 187.165 210.015 189.244 207.013L189.25 206.988Z" fill="#B1E0C6"/>
<path d="M218.697 179.153C230.5 181.186 236.173 182.023 246.884 183.278C244.673 186.626 243.48 188.237 240.96 191.318C234.421 191.26 231.025 191.138 224.034 190.657C222.31 193.466 221.419 194.829 219.565 197.485C225.883 197.483 228.96 197.375 234.91 196.934C232.324 199.721 230.957 201.049 228.142 203.566C222.445 204.679 219.492 205.109 213.438 205.694C210.98 208.739 209.721 210.201 207.111 212.982C213.497 211.699 216.598 210.862 222.548 208.805C219.147 211.203 217.392 212.309 213.763 214.332C205.05 218.958 200.366 220.75 190.672 223.104C202.342 209.748 210.745 194.911 218.697 179.153Z" fill="#B1E0C6"/>
<path d="M107.357 89.8075C110.618 93.9124 112.348 96.1357 115.955 100.859C112.289 109.149 108.96 116.23 105.837 121.514C102.713 126.797 99.8092 130.38 96.9448 132.344C94.0681 134.305 90.9842 134.49 87.6016 133.046C83.5009 131.29 80.5027 128.214 78.4644 124.056C76.4261 119.898 75.0138 113.649 75.2293 105.589C75.4325 97.5268 77.7162 88.3667 83.837 78.5142C90.9036 67.142 101.098 58.1181 112.075 50.6309C121.412 44.2669 128.781 39.8056 134.168 37.8867C138.379 36.3881 140.059 37.1273 139.581 40.6768C139.103 44.2263 136.656 50.6632 132.645 60.9236C126.848 63.1002 123.927 64.1958 118.181 66.3733C119.417 63.526 120.266 61.5337 120.638 60.2936C121.285 58.2211 121.517 56.7201 121.309 55.7318C121.097 54.7558 120.414 54.3627 119.249 54.4969C116.6 54.8247 112.788 57.284 108.014 61.9152C104.463 65.3638 99.9711 70.7537 95.6358 78.7467C90.2497 88.6516 88.3603 96.1442 88.3142 100.532C88.2682 104.92 89.5465 107.6 92.0099 108.26C94.3996 108.9 96.7296 107.607 99.1232 104.361C101.517 101.114 104.182 96.1675 107.364 89.783L107.357 89.8075Z" fill="#2BAE66"/>
<path d="M127.956 82.836C133.565 68.8141 141.555 55.4693 152.105 44.6235C160.248 36.2453 166.995 32.1428 172.956 32.5447C179.071 32.9616 182.243 37.9359 183.009 48.0182C184.119 62.7502 180.832 78.1561 177.144 92.3118C174.144 103.802 170.117 116.33 164.612 127.07C160.04 135.998 155.181 142.511 150.136 146.584C145.091 150.656 139.944 151.825 134.648 150.17C129.266 148.491 125.429 144.915 123.008 139.538C120.584 134.173 119.383 126.548 119.874 116.724C120.365 106.9 122.867 95.5525 127.956 82.836ZM141.983 85.4387C137.841 96.9771 136.104 105.811 136.33 111.585C136.553 117.371 138.266 120.785 141.427 121.633C144.675 122.503 147.965 120.469 151.282 115.591C154.599 110.714 158.212 101.345 162.289 88.0425C165.721 76.8522 167.392 68.802 167.358 63.6836C167.324 58.5652 165.983 55.9207 163.214 55.5201C160.558 55.1369 157.499 57.1411 153.925 61.6079C150.354 66.0624 146.18 73.7966 142.008 85.4453L141.983 85.4387Z" fill="#2BAE66"/>
<path d="M197.946 39.3853C204.577 41.6481 207.745 43.0616 213.716 46.3166C216.662 47.9203 218.895 50.5676 220.678 54.1582C222.461 57.7489 224.016 62.2897 225.252 67.8745C226.491 73.4471 227.386 79.7156 227.661 86.7769C227.936 93.8381 227.665 101.37 226.64 109.213C225.043 121.499 222.478 130.925 219.76 137.539C217.045 144.14 213.873 149.608 210.522 153.78C207.171 157.952 204.031 160.552 201.244 161.591C197.406 163.019 194.143 163.484 191.512 162.911C182.695 161.008 178.149 159.935 168.909 157.603C179.643 118.476 189.771 79.1592 197.939 39.4098L197.946 39.3853ZM205.579 67.9095C202.222 89.9953 197.295 111.765 191.957 133.452C193.44 133.849 194.176 134.046 195.646 134.44C198.771 135.277 201.186 134.992 202.915 133.59C204.64 132.2 206.395 129.426 208.079 125.346C209.763 121.266 211.623 114.422 213.251 104.916C215.417 92.3225 215.578 83.6837 214.705 78.6558C213.832 73.6279 211.857 70.4587 208.676 69.1465C207.444 68.6456 206.83 68.3891 205.579 67.9095Z" fill="#2BAE66"/>
<path d="M232.268 59.3387C241.192 67.2596 245.047 71.8914 251.158 81.8822C254.947 88.8211 256.507 92.5095 258.853 100.126C253.616 94.9136 250.692 92.3962 244.33 87.6575C245.143 94.0354 245.38 97.3169 245.508 103.997C252.181 107.821 255.314 109.803 261.035 113.845C262.088 121.535 262.262 125.443 261.817 133.283C255.355 130.291 251.862 128.764 244.459 125.756C243.476 134.279 242.761 138.317 240.717 146.779C249.381 149.153 253.452 150.284 260.936 152.355C258.896 160.752 257.374 164.863 253.678 172.384C241.701 171.539 234.855 170.716 220.129 168.32C231.603 132.95 238.155 96.4843 232.274 59.3142L232.268 59.3387Z" fill="#2BAE66"/>
<path d="M263.641 126.719C263.519 129.773 263.185 132.586 262.24 135.38C275.877 143.605 283.245 151.306 281.692 157.102C277.952 171.06 224 168.727 161.191 151.897C98.3824 135.067 50.4922 110.112 54.2322 96.1543C55.6967 90.6888 64.8439 87.7284 79.2108 87.1517C80.2457 84.9072 81.1702 82.6332 82.2631 80.4173C82.6006 79.746 83.0099 79.1989 83.482 78.7606C52.0831 76.4286 30.8985 79.8017 28.3734 89.2255C23.7829 106.357 82.5559 136.974 159.642 157.629C236.728 178.284 302.939 181.144 307.526 164.024C310.094 154.441 292.826 140.646 263.641 126.719Z" fill="#B1E0C6"/>
</g>
<defs>
<clipPath id="clip0_25_4604">
<rect width="289" height="202" fill="white" transform="translate(52.2812) rotate(15)"/>
</clipPath>
</defs>
</svg>
