<svg width="22" height="22" viewBox="0 0 22 22" fill="gray" xmlns="http://www.w3.org/2000/svg">
<path fill-rule="evenodd" clip-rule="evenodd" d="M16.3536 6.35355C16.5488 6.15829 16.5488 5.84171 16.3536 5.64645C16.1583 5.45118 15.8417 5.45118 15.6464 5.64645L11 10.2929L6.35355 5.64645C6.15829 5.45118 5.84171 5.45118 5.64645 5.64645C5.45118 5.84171 5.45118 6.15829 5.64645 6.35355L10.2929 11L5.64645 15.6464C5.45118 15.8417 5.45118 16.1583 5.64645 16.3536C5.84171 16.5488 6.15829 16.5488 6.35355 16.3536L11 11.7071L15.6464 16.3536C15.8417 16.5488 16.1583 16.5488 16.3536 16.3536C16.5488 16.1583 16.5488 15.8417 16.3536 15.6464L11.7071 11L16.3536 6.35355Z" fill="#2BAE66"/>
<path d="M16.3536 5.64645L16 6L16 6L16.3536 5.64645ZM16.3536 6.35355L16 6L16 6L16.3536 6.35355ZM15.6464 5.64645L16 6L16 6L15.6464 5.64645ZM11 10.2929L10.6464 10.6464C10.8417 10.8417 11.1583 10.8417 11.3536 10.6464L11 10.2929ZM6.35355 5.64645L6 6L6 6L6.35355 5.64645ZM5.64645 5.64645L6 6L6 6L5.64645 5.64645ZM5.64645 6.35355L6 6L6 6L5.64645 6.35355ZM10.2929 11L10.6464 11.3536C10.8417 11.1583 10.8417 10.8417 10.6464 10.6464L10.2929 11ZM5.64645 15.6464L6 16L6 16L5.64645 15.6464ZM5.64645 16.3536L6 16L6 16L5.64645 16.3536ZM6.35355 16.3536L6 16L6 16L6.35355 16.3536ZM11 11.7071L11.3536 11.3536C11.1583 11.1583 10.8417 11.1583 10.6464 11.3536L11 11.7071ZM15.6464 16.3536L16 16L16 16L15.6464 16.3536ZM16.3536 16.3536L16 16L16 16L16.3536 16.3536ZM16.3536 15.6464L16 16L16 16L16.3536 15.6464ZM11.7071 11L11.3536 10.6464C11.1583 10.8417 11.1583 11.1583 11.3536 11.3536L11.7071 11ZM16 6V6L16.7071 6.70711C17.0976 6.31658 17.0976 5.68342 16.7071 5.29289L16 6ZM16 6H16L16.7071 5.29289C16.3166 4.90237 15.6834 4.90237 15.2929 5.29289L16 6ZM11.3536 10.6464L16 6L15.2929 5.29289L10.6464 9.93934L11.3536 10.6464ZM6 6L10.6464 10.6464L11.3536 9.93934L6.70711 5.29289L6 6ZM6 6H6L6.70711 5.29289C6.31658 4.90237 5.68342 4.90237 5.29289 5.29289L6 6ZM6 6V6L5.29289 5.29289C4.90237 5.68342 4.90237 6.31658 5.29289 6.70711L6 6ZM10.6464 10.6464L6 6L5.29289 6.70711L9.93934 11.3536L10.6464 10.6464ZM6 16L10.6464 11.3536L9.93934 10.6464L5.29289 15.2929L6 16ZM6 16V16L5.29289 15.2929C4.90237 15.6834 4.90237 16.3166 5.29289 16.7071L6 16ZM6 16H6L5.29289 16.7071C5.68342 17.0976 6.31658 17.0976 6.70711 16.7071L6 16ZM10.6464 11.3536L6 16L6.70711 16.7071L11.3536 12.0607L10.6464 11.3536ZM16 16L11.3536 11.3536L10.6464 12.0607L15.2929 16.7071L16 16ZM16 16H16L15.2929 16.7071C15.6834 17.0976 16.3166 17.0976 16.7071 16.7071L16 16ZM16 16V16L16.7071 16.7071C17.0976 16.3166 17.0976 15.6834 16.7071 15.2929L16 16ZM11.3536 11.3536L16 16L16.7071 15.2929L12.0607 10.6464L11.3536 11.3536ZM16 6L11.3536 10.6464L12.0607 11.3536L16.7071 6.70711L16 6Z" fill="#2BAE66"/>
</svg>
