<svg width="20" height="20" viewBox="0 0 20 20" fill="none" xmlns="http://www.w3.org/2000/svg">
<g filter="url(#filter0_d_25_3587)">
<path d="M14.8147 13.3334C15.3772 13.3334 15.8332 12.8774 15.8332 12.3149V5.18527C15.8332 4.62275 15.3772 4.16675 14.8147 4.16675H7.68502C7.12251 4.16675 6.6665 4.62275 6.6665 5.18527" stroke="#16171E" stroke-linecap="round" stroke-linejoin="round"/>
</g>
<g filter="url(#filter1_d_25_3587)">
<path d="M12.3147 6.66675H5.18502C4.62251 6.66675 4.1665 7.12275 4.1665 7.68527V14.8149C4.1665 15.3774 4.62251 15.8334 5.18502 15.8334H12.3147C12.8772 15.8334 13.3332 15.3774 13.3332 14.8149V7.68527C13.3332 7.12275 12.8772 6.66675 12.3147 6.66675Z" fill="#16171E"/>
<path d="M12.3147 6.66675H5.18502C4.62251 6.66675 4.1665 7.12275 4.1665 7.68527V14.8149C4.1665 15.3774 4.62251 15.8334 5.18502 15.8334H12.3147C12.8772 15.8334 13.3332 15.3774 13.3332 14.8149V7.68527C13.3332 7.12275 12.8772 6.66675 12.3147 6.66675Z" stroke="#16171E" stroke-linecap="round" stroke-linejoin="round"/>
</g>
<defs>
<filter id="filter0_d_25_3587" x="4.1665" y="1.66675" width="14.1665" height="14.1667" filterUnits="userSpaceOnUse" color-interpolation-filters="sRGB">
<feFlood flood-opacity="0" result="BackgroundImageFix"/>
<feColorMatrix in="SourceAlpha" type="matrix" values="0 0 0 0 0 0 0 0 0 0 0 0 0 0 0 0 0 0 127 0" result="hardAlpha"/>
<feOffset/>
<feGaussianBlur stdDeviation="1"/>
<feComposite in2="hardAlpha" operator="out"/>
<feColorMatrix type="matrix" values="0 0 0 0 0 0 0 0 0 0 0 0 0 0 0 0 0 0 0.5 0"/>
<feBlend mode="normal" in2="BackgroundImageFix" result="effect1_dropShadow_25_3587"/>
<feBlend mode="normal" in="SourceGraphic" in2="effect1_dropShadow_25_3587" result="shape"/>
</filter>
<filter id="filter1_d_25_3587" x="1.6665" y="4.16675" width="14.1665" height="14.1667" filterUnits="userSpaceOnUse" color-interpolation-filters="sRGB">
<feFlood flood-opacity="0" result="BackgroundImageFix"/>
<feColorMatrix in="SourceAlpha" type="matrix" values="0 0 0 0 0 0 0 0 0 0 0 0 0 0 0 0 0 0 127 0" result="hardAlpha"/>
<feOffset/>
<feGaussianBlur stdDeviation="1"/>
<feComposite in2="hardAlpha" operator="out"/>
<feColorMatrix type="matrix" values="0 0 0 0 0 0 0 0 0 0 0 0 0 0 0 0 0 0 0.5 0"/>
<feBlend mode="normal" in2="BackgroundImageFix" result="effect1_dropShadow_25_3587"/>
<feBlend mode="normal" in="SourceGraphic" in2="effect1_dropShadow_25_3587" result="shape"/>
</filter>
</defs>
</svg>
