<svg width="110" height="110" viewBox="0 0 110 110" fill="none" xmlns="http://www.w3.org/2000/svg">
<circle cx="55" cy="55" r="55" fill="#AAAAAA"/>
<path fill-rule="evenodd" clip-rule="evenodd" d="M56.8491 109.969C62.961 109.768 68.8204 108.569 74.2699 106.53V87.7468C74.2699 86.994 74.8802 86.3837 75.6331 86.3837C76.3859 86.3837 76.9962 86.994 76.9962 87.7468V105.425C81.6682 103.384 86.0018 100.713 89.8896 97.5193C88.4483 87.5054 82.7375 78.8716 74.6585 73.5182C69.7388 77.4631 63.5748 79.9254 56.8491 80.2198V109.969ZM54.1229 109.993V80.2198C47.3972 79.9254 41.2333 77.4631 36.3136 73.5182C28.0452 78.9971 22.2574 87.9119 20.9882 98.2256C25.006 101.391 29.4758 104.009 34.2849 105.965V87.7468C34.2849 86.994 34.8952 86.3837 35.648 86.3837C36.4009 86.3837 37.0111 86.994 37.0111 87.7468V106.991C42.3857 108.85 48.1383 109.9 54.1229 109.993ZM56.8491 73.6231V77.4907C57.554 77.4568 58.2521 77.3969 58.9423 77.3117C63.8566 76.7055 68.3741 74.8232 72.1563 72.0069C70.8469 71.2891 69.4869 70.6532 68.082 70.1062C64.7804 72.1356 60.9514 73.3937 56.8491 73.6231ZM54.1229 73.6231V77.4907C48.569 77.2239 43.443 75.336 39.2031 72.2903C39.0731 72.1969 38.944 72.1024 38.8157 72.0069C40.1251 71.2891 41.4849 70.6533 42.8897 70.1063C46.1917 72.1377 50.0209 73.3941 54.1229 73.6231ZM34.1544 71.6884C26.0468 77.3097 20.2595 86.0486 18.5341 96.1741C7.16556 86.0981 0 71.3858 0 55C0 24.6243 24.6243 0 55 0C85.3757 0 110 24.6243 110 55C110 70.9808 103.184 85.3697 92.3012 95.4184C90.4222 85.6143 84.7229 77.1693 76.8176 71.6884L76.8537 71.6575L75.277 70.6753L75.2327 70.6477L74.428 70.1464L74.4174 70.1555C73.2194 69.4528 71.9793 68.8143 70.7008 68.2452C74.2016 65.3885 76.8853 61.5646 78.3431 57.1805C78.9957 57.6851 79.8146 57.9852 80.7039 57.9852C82.784 57.9852 84.4784 56.3435 84.5628 54.2843H84.5661V54.123V45.717V45.4898H84.5596C84.4421 43.4616 82.7618 41.8548 80.7039 41.8548C79.8932 41.8548 79.1411 42.1042 78.52 42.5305C75.5062 32.6694 66.3339 25.4974 55.486 25.4974C46.73 25.4974 39.0657 30.1699 34.8505 37.1577V27.3444C36.8212 26.7579 38.2583 24.9323 38.2583 22.7711C38.2583 20.1361 36.1223 18.0001 33.4874 18.0001C30.8524 18.0001 28.7164 20.1361 28.7164 22.7711C28.7164 24.9323 30.1535 26.7579 32.1242 27.3444V42.3287C31.5735 42.0266 30.941 41.8548 30.2682 41.8548C28.2103 41.8548 26.53 43.4616 26.4125 45.4898H26.406V45.717V54.123V54.2843H26.4093C26.4937 56.3435 28.1881 57.9852 30.2682 57.9852C31.1575 57.9852 31.9763 57.6851 32.6289 57.1806C34.0867 61.5646 36.7705 65.3885 40.2712 68.2452C38.9927 68.8143 37.7526 69.4528 36.5547 70.1555L36.5441 70.1464L35.7578 70.6362L35.6951 70.6752L34.1183 71.6575L34.1544 71.6884ZM31.4041 49.5405L31.4041 49.5793L31.4041 49.618V54.123C31.4041 54.7514 30.8966 55.2589 30.2682 55.2589C29.6397 55.2589 29.1322 54.7514 29.1322 54.123V45.717C29.1322 45.0885 29.6397 44.5811 30.2682 44.5811C30.8966 44.5811 31.4041 45.0885 31.4041 45.717V49.5405ZM34.1304 49.6158C34.1428 57.0469 37.9516 63.5894 43.7252 67.4061L43.7929 67.4505C47.1512 69.6538 51.166 70.9348 55.486 70.9348C59.8056 70.9348 63.8206 69.6518 67.1796 67.4502L67.2348 67.414C73.0246 63.5922 76.8417 57.0306 76.8417 49.5793C76.8417 37.7845 67.2808 28.2236 55.486 28.2236C43.7034 28.2236 34.1501 37.7648 34.1304 49.5428V49.6158ZM39.81 52.6212C39.81 46.0575 46.5369 40.2644 55.4837 40.2644C64.4305 40.2644 71.1574 46.0575 71.1574 52.6212C71.1574 59.1849 64.4305 64.978 55.4837 64.978C46.5369 64.978 39.81 59.1849 39.81 52.6212ZM55.4837 37.5382C45.6121 37.5382 37.0837 44.0303 37.0837 52.6212C37.0837 61.2121 45.6121 67.7042 55.4837 67.7042C65.3553 67.7042 73.8837 61.2121 73.8837 52.6212C73.8837 44.0303 65.3553 37.5382 55.4837 37.5382ZM33.4874 20.7264C32.3581 20.7264 31.4427 21.6418 31.4427 22.7711C31.4427 23.9003 32.3581 24.8157 33.4874 24.8157C34.6166 24.8157 35.532 23.9003 35.532 22.7711C35.532 21.6418 34.6166 20.7264 33.4874 20.7264ZM60.7113 84.7933C60.7113 84.0405 61.3216 83.4302 62.0745 83.4302H70.4963C71.2492 83.4302 71.8594 84.0405 71.8594 84.7933C71.8594 85.5462 71.2492 86.1565 70.4963 86.1565H62.0745C61.3216 86.1565 60.7113 85.5462 60.7113 84.7933ZM80.7039 44.5811C80.0755 44.5811 79.568 45.0885 79.568 45.717V54.123C79.568 54.7514 80.0755 55.2589 80.7039 55.2589C81.3324 55.2589 81.8399 54.7514 81.8399 54.123V45.717C81.8399 45.0885 81.3324 44.5811 80.7039 44.5811ZM56.7446 43.2219L56.8491 44.581L62.8562 44.8274C63.7503 45.4532 64.6272 46.1813 65.3408 47.178C66.0624 48.1859 66.5694 49.4009 66.8269 50.9454C66.9506 51.688 66.449 52.3903 65.7064 52.5141C64.9638 52.6378 64.2615 52.1362 64.1377 51.3936C63.9407 50.2118 63.5765 49.3969 63.1241 48.7651C62.6637 48.122 62.064 47.6007 61.2929 47.061L61.2927 47.0609C60.3989 46.4352 59.327 46.1421 58.4223 46.0164C57.9785 45.9548 57.597 45.9365 57.3306 45.9334C57.198 45.9319 57.0956 45.9342 57.0301 45.9366C56.9975 45.9378 56.9742 45.939 56.9611 45.9398L56.9494 45.9405C56.2006 45.9958 55.5476 45.4348 55.49 44.6856C55.4323 43.935 55.994 43.2797 56.7446 43.2219ZM56.8491 44.581C56.7446 43.2219 56.745 43.2219 56.7454 43.2219L56.7463 43.2218L56.7483 43.2216L56.7531 43.2213L56.766 43.2204L56.8046 43.218L56.8483 43.2157C56.8721 43.2145 56.8997 43.2133 56.9308 43.2122C57.0358 43.2083 57.1818 43.2053 57.3616 43.2073C57.72 43.2114 58.2188 43.2357 58.7974 43.3161C59.9373 43.4744 61.4781 43.8628 62.8561 44.8274L56.8491 44.581Z" fill="#D9D9D9"/>
</svg>
