<svg width="332" height="270" viewBox="0 0 332 270" fill="none" xmlns="http://www.w3.org/2000/svg">
<g clip-path="url(#clip0_500_2534)">
<g filter="url(#filter0_d_500_2534)">
<path d="M78.3142 165.937C80.663 168.103 81.9073 169.146 84.5513 171.142C85.2939 173.468 86.0836 175.374 86.8517 176.92C88.0991 179.421 89.3416 181.304 90.6258 182.541C91.5858 183.468 92.2132 183.676 92.5415 183.186C92.8731 182.684 92.9192 181.777 92.6829 180.452C92.4547 179.196 91.988 177.85 91.2394 176.427C90.5064 174.996 88.9999 173.069 86.7757 170.634C83.119 166.634 80.3103 162.9 78.3079 159.539C76.2964 156.163 74.7991 152.78 74.1209 149.184C73.6742 146.831 73.7419 144.814 74.3741 143.092C75.0063 141.37 76.2409 140.243 78.0469 139.728C79.8528 139.214 82.4506 139.568 85.817 140.878C89.9482 142.471 93.1285 144.965 95.166 148.439C97.2157 151.918 98.2219 156.692 98.4872 162.516C94.8322 161.156 93.062 160.458 89.6336 158.988C89.3055 156.536 88.7782 154.582 87.9896 153.163C87.2165 151.734 86.1503 150.713 84.8222 150.081C83.7415 149.555 82.9414 149.551 82.4562 150.038C81.971 150.525 81.7731 151.313 81.8658 152.389C81.9327 153.168 82.2357 153.998 82.7136 154.862C83.2038 155.729 84.2273 156.909 85.834 158.364C89.8107 162.004 92.7255 165.097 94.4838 167.604C96.2544 170.114 97.5548 172.761 98.4072 175.511C99.2719 178.265 99.7696 181.064 99.9813 183.853C100.246 187.129 100.088 189.779 99.6426 191.735C99.1973 193.691 98.4705 194.639 97.4554 194.603C96.4404 194.567 95.0655 193.424 93.2619 191.233C90.1044 187.38 87.566 183.127 85.0799 178.875C82.6061 174.626 80.1724 170.375 78.2595 165.896L78.3142 165.937Z" fill="#B1E0C6"/>
</g>
<g filter="url(#filter1_d_500_2534)">
<path d="M104.009 149.118C111.171 151.654 114.871 152.895 122.442 155.331C126.565 156.659 129.399 159.27 130.828 163.2C132.246 167.126 132.319 172.097 131.215 177.935C130.08 183.935 128.221 188.126 125.739 190.574C123.258 193.022 120.15 193.345 116.327 191.533C114.254 190.544 113.231 190.047 111.212 189.006C110.833 197.087 110.789 200.977 110.993 208.4C107.92 206.289 106.447 205.172 103.612 202.81C101.428 184.782 102.343 167.152 103.991 149.139L104.009 149.118ZM111.979 177.759C112.954 178.191 113.445 178.414 114.423 178.834C116.354 179.667 117.801 179.66 118.757 178.787C119.714 177.914 120.331 176.542 120.603 174.645C120.858 172.809 120.739 171.096 120.196 169.545C119.656 167.982 118.361 166.833 116.355 166.086C115.125 165.625 114.517 165.396 113.315 164.93C112.667 170.141 112.4 172.71 111.97 177.743L111.979 177.759Z" fill="#B1E0C6"/>
</g>
<g filter="url(#filter2_d_500_2534)">
<path d="M147.04 214.71C142.464 213.602 140.149 212.929 135.73 211.429C134.381 214.746 133.735 216.372 132.531 219.543C128.852 218.176 127.061 217.408 123.59 215.703C130.007 197.392 138.629 180.119 147.3 162.806C152.575 164.299 155.28 165.037 160.621 166.428C159.78 186.088 158.924 205.705 156.038 225.198C152.076 224.741 150.078 224.402 146.107 223.535C146.5 220.108 146.687 218.332 147.04 214.71ZM148.17 202.456C148.819 194.053 149.096 189.635 149.646 180.523C145.772 188.705 143.921 192.675 140.552 200.296C143.562 201.221 145.087 201.656 148.157 202.452L148.17 202.456Z" fill="#B1E0C6"/>
</g>
<g filter="url(#filter3_d_500_2534)">
<path d="M189.251 206.988C192.038 208.693 193.386 209.449 195.937 210.71C193.195 214.034 190.468 216.758 187.809 218.987C185.146 221.229 182.602 222.977 180.149 224.237C177.697 225.498 175.184 226.296 172.501 226.457C169.257 226.651 166.969 225.973 165.567 224.441C164.165 222.91 163.492 220.129 163.488 215.925C163.485 211.721 164.623 206.247 167.071 199.416C170.339 190.309 174.454 183.138 179.589 178.629C184.725 174.121 190.432 172.577 196.486 173.858C201.221 174.864 204.348 177.067 205.799 180.28C207.262 183.496 207.324 187.873 205.841 193.163C201.413 193.999 199.196 194.43 194.757 195.263C195.159 193.663 195.339 192.451 195.3 191.665C195.245 190.35 194.907 189.261 194.299 188.442C193.691 187.622 192.816 187.112 191.684 186.927C189.13 186.505 186.524 187.751 183.931 190.615C181.993 192.749 180.056 196.302 178.065 201.035C175.6 206.902 174.448 210.758 174.607 212.862C174.765 214.967 175.801 216.006 177.76 216.045C179.668 216.083 181.518 215.305 183.348 213.773C185.177 212.24 187.165 210.015 189.244 207.012L189.251 206.988Z" fill="#B1E0C6"/>
</g>
<g filter="url(#filter4_d_500_2534)">
<path d="M218.697 179.153C230.5 181.186 236.173 182.023 246.884 183.277C244.673 186.625 243.48 188.236 240.96 191.317C234.421 191.259 231.025 191.138 224.035 190.657C222.31 193.465 221.419 194.829 219.565 197.484C225.883 197.483 228.96 197.375 234.91 196.933C232.324 199.721 230.957 201.049 228.142 203.565C222.445 204.679 219.492 205.109 213.438 205.693C210.98 208.739 209.721 210.201 207.111 212.982C213.497 211.698 216.598 210.861 222.548 208.804C219.147 211.203 217.392 212.309 213.764 214.331C205.05 218.958 200.367 220.75 190.672 223.104C202.343 209.747 210.745 194.911 218.697 179.153Z" fill="#B1E0C6"/>
</g>
<g filter="url(#filter5_d_500_2534)">
<path d="M262.003 127.675C261.881 130.709 261.55 133.503 260.611 136.278C274.156 144.447 281.474 152.096 279.932 157.854C276.217 171.718 222.628 169.4 160.242 152.684C97.8557 135.968 50.2876 111.18 54.0025 97.3163C55.4571 91.8875 64.5428 88.9471 78.8131 88.3742C79.841 86.1448 80.7593 83.8861 81.8449 81.6851C82.1801 81.0183 82.5866 80.4749 83.0555 80.0396C51.8679 77.7232 30.8258 81.0737 28.3177 90.434C23.7581 107.451 82.1357 137.861 158.703 158.377C235.271 178.893 301.036 181.734 305.592 164.73C308.143 155.211 290.991 141.509 262.003 127.675Z" fill="#B1E0C6"/>
</g>
<g filter="url(#filter6_d_500_2534)">
<path d="M107.357 89.8075C110.619 93.9124 112.348 96.1357 115.955 100.859C112.289 109.149 108.96 116.23 105.837 121.514C102.713 126.797 99.8094 130.38 96.945 132.344C94.0683 134.305 90.9844 134.49 87.6018 133.046C83.5011 131.29 80.5028 128.214 78.4645 124.056C76.4262 119.898 75.014 113.649 75.2295 105.589C75.4327 97.5268 77.7164 88.3667 83.8372 78.5142C90.9038 67.142 101.098 58.1181 112.075 50.6309C121.412 44.2669 128.781 39.8056 134.168 37.8867C138.379 36.3881 140.06 37.1273 139.581 40.6768C139.103 44.2263 136.656 50.6632 132.646 60.9236C126.848 63.1002 123.927 64.1958 118.181 66.3733C119.417 63.526 120.266 61.5337 120.638 60.2936C121.285 58.2211 121.517 56.7201 121.309 55.7318C121.097 54.7558 120.415 54.3627 119.249 54.4969C116.6 54.8247 112.788 57.284 108.014 61.9152C104.463 65.3638 99.9713 70.7537 95.636 78.7467C90.2499 88.6516 88.3605 96.1442 88.3144 100.532C88.2684 104.92 89.5467 107.6 92.01 108.26C94.3998 108.9 96.7298 107.607 99.1234 104.361C101.517 101.114 104.182 96.1675 107.364 89.783L107.357 89.8075Z" fill="#2BAE66" shape-rendering="crispEdges"/>
<path d="M107.403 89.7711L107.14 89.6715C103.958 96.0576 101.301 100.986 98.9221 104.212C96.5452 107.436 94.3087 108.617 92.0747 108.019C90.9246 107.71 90.0422 106.932 89.4468 105.686C88.8477 104.432 88.5416 102.708 88.5644 100.535C88.6099 96.2033 90.4799 88.752 95.8556 78.8662L95.8558 78.8659C100.179 70.8954 104.655 65.5257 108.188 62.0946C110.568 59.7858 112.702 58.0245 114.566 56.8013C116.432 55.5759 118.009 54.9025 119.279 54.7452C119.833 54.6815 120.232 54.7484 120.509 54.913C120.778 55.0727 120.969 55.3467 121.064 55.7842C121.257 56.7035 121.046 58.1489 120.399 60.2191L120.399 60.2219C120.032 61.4442 119.191 63.4199 117.952 66.2738L117.716 66.8169L118.27 66.6071C123.803 64.5103 126.716 63.4168 132.102 61.3948L132.733 61.1576L132.838 61.1184L132.878 61.0146C134.883 55.8851 136.499 51.7067 137.674 48.3665C138.847 45.0306 139.586 42.5127 139.829 40.7102C139.951 39.807 139.939 39.0562 139.77 38.4639C139.597 37.8619 139.26 37.4214 138.745 37.1649C138.24 36.914 137.595 36.8542 136.829 36.943C136.061 37.032 135.146 37.2734 134.085 37.6512L134.085 37.6512C128.663 39.5824 121.269 44.0619 111.935 50.4243L111.934 50.4243C100.941 57.9225 90.7165 66.9696 83.6248 78.3823L83.8225 78.5051L83.6248 78.3823C77.4808 88.2722 75.1839 97.4755 74.9796 105.583C74.7633 113.672 76.1799 119.964 78.2401 124.166C80.301 128.371 83.3405 131.493 87.5034 133.275L87.5036 133.275C90.9553 134.75 94.1306 134.566 97.0858 132.551L97.0863 132.55C99.9966 130.555 102.923 126.934 106.052 121.641C109.183 116.343 112.518 109.251 116.184 100.96L116.244 100.825L116.154 100.707C112.546 95.9829 110.815 93.7583 107.553 89.652L107.403 89.7711Z" stroke="#151515" stroke-opacity="0.2" stroke-width="0.5" shape-rendering="crispEdges"/>
</g>
<g filter="url(#filter7_d_500_2534)">
<path d="M127.956 82.8362C133.566 68.8143 141.555 55.4696 152.106 44.6238C160.248 36.2455 166.996 32.143 172.956 32.545C179.071 32.9618 182.243 37.9361 183.01 48.0185C184.119 62.7505 180.832 78.1563 177.144 92.3121C174.144 103.802 170.117 116.33 164.612 127.07C160.04 135.998 155.181 142.511 150.136 146.584C145.092 150.657 139.945 151.825 134.648 150.17C129.266 148.491 125.43 144.915 123.009 139.538C120.584 134.173 119.383 126.549 119.874 116.725C120.366 106.9 122.868 95.5528 127.956 82.8362ZM141.984 85.439C137.841 96.9774 136.104 105.811 136.331 111.585C136.553 117.372 138.266 120.786 141.428 121.633C144.675 122.503 147.966 120.469 151.282 115.592C154.599 110.714 158.212 101.346 162.289 88.0428C165.721 76.8525 167.392 68.8023 167.358 63.6839C167.324 58.5655 165.984 55.9209 163.214 55.5204C160.559 55.1371 157.5 57.1414 153.925 61.6081C150.354 66.0626 146.18 73.7968 142.008 85.4455L141.984 85.439Z" fill="#2BAE66"/>
<path d="M152.285 44.7981L152.285 44.798C160.426 36.4218 167.101 32.4008 172.94 32.7944C175.92 32.9976 178.169 34.3044 179.779 36.7929C181.398 39.2972 182.378 43.0122 182.76 48.0372C183.867 62.7247 180.589 78.0958 176.902 92.249C173.904 103.731 169.883 116.24 164.39 126.956L164.39 126.956C159.826 135.867 154.987 142.347 149.979 146.389C144.988 150.419 139.926 151.558 134.723 149.931L134.722 149.931C129.415 148.276 125.631 144.753 123.237 139.436L123.236 139.435C120.834 134.12 119.634 126.539 120.124 116.737C120.614 106.945 123.108 95.6248 128.188 82.9291L127.972 82.8423L128.188 82.9291C133.788 68.9314 141.761 55.6161 152.285 44.7981ZM153.73 61.4518C150.157 65.909 146.001 73.6038 141.85 85.1445L141.826 85.1379L141.748 85.3545C137.602 96.9029 135.853 105.773 136.081 111.595C136.304 117.395 138.025 120.98 141.363 121.874C144.779 122.79 148.163 120.623 151.489 115.732C154.83 110.819 158.453 101.415 162.528 88.116C165.96 76.9244 167.642 68.8422 167.608 63.6822C167.591 61.1081 167.246 59.1217 166.535 57.7198C165.816 56.3024 164.722 55.4858 163.25 55.2729L163.25 55.2729C161.843 55.0699 160.353 55.5039 158.777 56.5364C157.203 57.568 155.526 59.208 153.73 61.4518Z" stroke="black" stroke-opacity="0.2" stroke-width="0.5"/>
</g>
<g filter="url(#filter8_d_500_2534)">
<path d="M197.946 39.3853C204.577 41.6481 207.745 43.0616 213.716 46.3166C216.662 47.9203 218.895 50.5676 220.678 54.1582C222.461 57.7489 224.016 62.2897 225.252 67.8745C226.491 73.4471 227.386 79.7156 227.661 86.7769C227.936 93.8381 227.665 101.37 226.641 109.213C225.043 121.499 222.478 130.925 219.76 137.539C217.045 144.14 213.873 149.608 210.522 153.78C207.171 157.952 204.031 160.552 201.244 161.591C197.407 163.019 194.143 163.484 191.512 162.911C182.695 161.008 178.149 159.935 168.91 157.603C179.643 118.476 189.771 79.1592 197.939 39.4098L197.946 39.3853ZM205.579 67.9095C202.222 89.9953 197.296 111.765 191.958 133.452C193.44 133.849 194.176 134.046 195.646 134.44C198.772 135.277 201.186 134.992 202.915 133.59C204.64 132.2 206.395 129.426 208.079 125.346C209.763 121.266 211.623 114.422 213.251 104.916C215.417 92.3225 215.578 83.6837 214.705 78.6558C213.833 73.6279 211.858 70.4587 208.676 69.1465C207.444 68.6457 206.83 68.3891 205.579 67.9095Z" fill="#2BAE66"/>
<path d="M191.564 162.666C182.83 160.782 178.29 159.711 169.218 157.423C179.905 118.458 189.988 79.3008 198.132 39.7132C204.568 41.9184 207.718 43.3318 213.596 46.5361L213.596 46.5361C216.484 48.1081 218.686 50.709 220.454 54.2694C222.226 57.8375 223.775 62.3581 225.008 67.9285L225.008 67.9288C226.244 73.4873 227.136 79.7409 227.411 86.7866C227.686 93.8346 227.415 101.353 226.393 109.18L226.393 109.181C224.797 121.45 222.237 130.854 219.529 137.444C216.821 144.028 213.66 149.474 210.327 153.623C206.987 157.782 203.881 160.341 201.157 161.357C197.341 162.777 194.129 163.226 191.565 162.667L191.564 162.666ZM205.668 67.6761L205.378 67.5649L205.332 67.8719C201.977 89.9466 197.052 111.708 191.715 133.392L191.656 133.63L191.893 133.693L191.902 133.695L191.91 133.698L191.919 133.7L191.928 133.702L191.936 133.705L191.945 133.707L191.953 133.709L191.962 133.712L191.97 133.714L191.979 133.716L191.987 133.718L191.996 133.721L192.004 133.723L192.013 133.725L192.021 133.728L192.03 133.73L192.038 133.732L192.047 133.734L192.055 133.737L192.063 133.739L192.072 133.741L192.08 133.743L192.088 133.746L192.097 133.748L192.105 133.75L192.113 133.752L192.121 133.754L192.13 133.757L192.138 133.759L192.146 133.761L192.154 133.763L192.163 133.765L192.171 133.768L192.179 133.77L192.187 133.772L192.195 133.774L192.203 133.776L192.211 133.778L192.219 133.781L192.227 133.783L192.236 133.785L192.244 133.787L192.252 133.789L192.26 133.791L192.268 133.794L192.276 133.796L192.284 133.798L192.291 133.8L192.299 133.802L192.307 133.804L192.315 133.806L192.323 133.808L192.331 133.811L192.339 133.813L192.347 133.815L192.355 133.817L192.362 133.819L192.37 133.821L192.378 133.823L192.386 133.825L192.394 133.827L192.401 133.829L192.409 133.831L192.417 133.834L192.425 133.836L192.432 133.838L192.44 133.84L192.448 133.842L192.455 133.844L192.463 133.846L192.471 133.848L192.478 133.85L192.486 133.852L192.493 133.854L192.501 133.856L192.509 133.858L192.516 133.86L192.524 133.862L192.531 133.864L192.539 133.866L192.546 133.868L192.554 133.87L192.561 133.872L192.569 133.874L192.576 133.876L192.584 133.878L192.591 133.88L192.599 133.882L192.606 133.884L192.614 133.886L192.621 133.888L192.628 133.89L192.636 133.892L192.643 133.894L192.651 133.896L192.658 133.898L192.665 133.9L192.673 133.902L192.68 133.904L192.687 133.906L192.695 133.908L192.702 133.91L192.709 133.912L192.716 133.914L192.724 133.916L192.731 133.918L192.738 133.92L192.745 133.922L192.753 133.924L192.76 133.925L192.767 133.927L192.774 133.929L192.781 133.931L192.789 133.933L192.796 133.935L192.803 133.937L192.81 133.939L192.817 133.941L192.824 133.943L192.831 133.945L192.839 133.947L192.846 133.948L192.853 133.95L192.86 133.952L192.867 133.954L192.874 133.956L192.881 133.958L192.888 133.96L192.895 133.962L192.902 133.964L192.909 133.965L192.916 133.967L192.923 133.969L192.93 133.971L192.937 133.973L192.944 133.975L192.951 133.977L192.958 133.979L192.965 133.98L192.972 133.982L192.979 133.984L192.986 133.986L192.993 133.988L193 133.99L193.007 133.992L193.013 133.993L193.02 133.995L193.027 133.997L193.034 133.999L193.041 134.001L193.048 134.003L193.055 134.004L193.062 134.006L193.068 134.008L193.075 134.01L193.082 134.012L193.089 134.014L193.096 134.015L193.103 134.017L193.109 134.019L193.116 134.021L193.123 134.023L193.13 134.025L193.136 134.026L193.143 134.028L193.15 134.03L193.157 134.032L193.164 134.034L193.17 134.035L193.177 134.037L193.184 134.039L193.19 134.041L193.197 134.043L193.204 134.044L193.211 134.046L193.217 134.048L193.224 134.05L193.231 134.052L193.237 134.053L193.244 134.055L193.251 134.057L193.257 134.059L193.264 134.061L193.271 134.062L193.277 134.064L193.284 134.066L193.291 134.068L193.297 134.069L193.304 134.071L193.311 134.073L193.317 134.075L193.324 134.077L193.331 134.078L193.337 134.08L193.344 134.082L193.35 134.084L193.357 134.085L193.364 134.087L193.37 134.089L193.377 134.091L193.383 134.093L193.39 134.094L193.397 134.096L193.403 134.098L193.41 134.1L193.416 134.101L193.423 134.103L193.429 134.105L193.436 134.107L193.443 134.108L193.449 134.11L193.456 134.112L193.462 134.114L193.469 134.115L193.475 134.117L193.482 134.119L193.488 134.121L193.495 134.122L193.501 134.124L193.508 134.126L193.515 134.128L193.521 134.129L193.528 134.131L193.534 134.133L193.541 134.135L193.547 134.136L193.554 134.138L193.56 134.14L193.567 134.142L193.573 134.143L193.58 134.145L193.586 134.147L193.593 134.149L193.599 134.15L193.606 134.152L193.612 134.154L193.619 134.156L193.625 134.157L193.632 134.159L193.638 134.161L193.645 134.163L193.651 134.164L193.658 134.166L193.664 134.168L193.671 134.169L193.677 134.171L193.684 134.173L193.69 134.175L193.697 134.176L193.703 134.178L193.71 134.18L193.716 134.182L193.722 134.183L193.729 134.185L193.735 134.187L193.742 134.189L193.748 134.19L193.755 134.192L193.761 134.194L193.768 134.196L193.774 134.197L193.781 134.199L193.787 134.201L193.794 134.202L193.8 134.204L193.807 134.206L193.813 134.208L193.82 134.209L193.826 134.211L193.833 134.213L193.839 134.215L193.846 134.216L193.852 134.218L193.859 134.22L193.865 134.222L193.872 134.223L193.878 134.225L193.885 134.227L193.891 134.229L193.898 134.23L193.904 134.232L193.911 134.234L193.917 134.236L193.924 134.237L193.93 134.239L193.937 134.241L193.943 134.242L193.95 134.244L193.956 134.246L193.963 134.248L193.969 134.249L193.976 134.251L193.982 134.253L193.989 134.255L193.995 134.256L194.002 134.258L194.008 134.26L194.015 134.262L194.021 134.263L194.028 134.265L194.034 134.267L194.041 134.269L194.048 134.27L194.054 134.272L194.061 134.274L194.067 134.276L194.074 134.277L194.08 134.279L194.087 134.281L194.093 134.283L194.1 134.285L194.107 134.286L194.113 134.288L194.12 134.29L194.126 134.292L194.133 134.293L194.139 134.295L194.146 134.297L194.153 134.299L194.159 134.3L194.166 134.302L194.173 134.304L194.179 134.306L194.186 134.308L194.192 134.309L194.199 134.311L194.206 134.313L194.212 134.315L194.219 134.316L194.226 134.318L194.232 134.32L194.239 134.322L194.246 134.324L194.252 134.325L194.259 134.327L194.266 134.329L194.272 134.331L194.279 134.332L194.286 134.334L194.292 134.336L194.299 134.338L194.306 134.34L194.312 134.341L194.319 134.343L194.326 134.345L194.333 134.347L194.339 134.349L194.346 134.35L194.353 134.352L194.36 134.354L194.366 134.356L194.373 134.358L194.38 134.36L194.387 134.361L194.394 134.363L194.4 134.365L194.407 134.367L194.414 134.369L194.421 134.37L194.428 134.372L194.434 134.374L194.441 134.376L194.448 134.378L194.455 134.38L194.462 134.381L194.469 134.383L194.476 134.385L194.482 134.387L194.489 134.389L194.496 134.391L194.503 134.393L194.51 134.394L194.517 134.396L194.524 134.398L194.531 134.4L194.538 134.402L194.545 134.404L194.552 134.406L194.559 134.407L194.566 134.409L194.573 134.411L194.579 134.413L194.586 134.415L194.593 134.417L194.6 134.419L194.608 134.421L194.615 134.422L194.622 134.424L194.629 134.426L194.636 134.428L194.643 134.43L194.65 134.432L194.657 134.434L194.664 134.436L194.671 134.438L194.678 134.439L194.685 134.441L194.692 134.443L194.7 134.445L194.707 134.447L194.714 134.449L194.721 134.451L194.728 134.453L194.735 134.455L194.743 134.457L194.75 134.459L194.757 134.461L194.764 134.462L194.771 134.464L194.779 134.466L194.786 134.468L194.793 134.47L194.8 134.472L194.808 134.474L194.815 134.476L194.822 134.478L194.83 134.48L194.837 134.482L194.844 134.484L194.852 134.486L194.859 134.488L194.866 134.49L194.874 134.492L194.881 134.494L194.889 134.496L194.896 134.498L194.903 134.5L194.911 134.502L194.918 134.504L194.926 134.506L194.933 134.508L194.941 134.51L194.948 134.512L194.956 134.514L194.963 134.516L194.971 134.518L194.978 134.52L194.986 134.522L194.993 134.524L195.001 134.526L195.008 134.528L195.016 134.53L195.024 134.532L195.031 134.534L195.039 134.536L195.047 134.538L195.054 134.54L195.062 134.542L195.07 134.544L195.077 134.546L195.085 134.548L195.093 134.551L195.1 134.553L195.108 134.555L195.116 134.557L195.124 134.559L195.131 134.561L195.139 134.563L195.147 134.565L195.155 134.567L195.163 134.569L195.171 134.571L195.178 134.573L195.186 134.576L195.194 134.578L195.202 134.58L195.21 134.582L195.218 134.584L195.226 134.586L195.234 134.588L195.242 134.59L195.25 134.593L195.258 134.595L195.266 134.597L195.274 134.599L195.282 134.601L195.29 134.603L195.298 134.606L195.306 134.608L195.314 134.61L195.322 134.612L195.331 134.614L195.339 134.616L195.347 134.619L195.355 134.621L195.363 134.623L195.371 134.625L195.38 134.627L195.388 134.63L195.396 134.632L195.404 134.634L195.413 134.636L195.421 134.638L195.429 134.641L195.438 134.643L195.446 134.645L195.454 134.647L195.463 134.65L195.471 134.652L195.48 134.654L195.488 134.656L195.496 134.659L195.505 134.661L195.513 134.663L195.522 134.666L195.53 134.668L195.539 134.67L195.547 134.672L195.556 134.675L195.565 134.677L195.573 134.679L195.582 134.682C198.747 135.53 201.257 135.256 203.072 133.784C204.848 132.354 206.622 129.53 208.31 125.442C210.005 121.337 211.869 114.473 213.498 104.958C215.665 92.3545 215.831 83.6826 214.951 78.613C214.072 73.5471 212.068 70.275 208.771 68.9154L208.77 68.9149C208.561 68.83 208.37 68.7521 208.191 68.6789C207.312 68.3207 206.709 68.0753 205.668 67.6761ZM208.676 69.1463L208.676 69.1463L208.676 69.1463Z" stroke="black" stroke-opacity="0.2" stroke-width="0.5"/>
</g>
<g filter="url(#filter9_d_500_2534)">
<path d="M232.268 59.339C241.192 67.2598 245.047 71.8917 251.158 81.8825C254.947 88.8213 256.507 92.5097 258.853 100.126C253.616 94.9138 250.692 92.3964 244.33 87.6577C245.143 94.0356 245.38 97.3171 245.508 103.997C252.181 107.821 255.314 109.803 261.035 113.845C262.088 121.535 262.262 125.443 261.817 133.283C255.355 130.291 251.863 128.764 244.459 125.756C243.476 134.279 242.762 138.317 240.717 146.78C249.381 149.154 253.452 150.284 260.936 152.355C258.896 160.753 257.374 164.863 253.678 172.384C241.702 171.539 234.855 170.716 220.129 168.32C231.603 132.95 238.156 96.4846 232.274 59.3145L232.268 59.339Z" fill="#2BAE66"/>
<path d="M253.528 172.123C241.742 171.288 234.911 170.468 220.457 168.12C231.807 133.046 238.311 96.8762 232.634 60.0001C241.162 67.6172 244.969 72.2426 250.941 82.0077C254.558 88.6312 256.136 92.28 258.317 99.242C253.506 94.4897 250.556 91.9835 244.479 87.4572L244.008 87.1059L244.082 87.6894C244.894 94.058 245.13 97.3305 245.258 104.002L245.261 104.144L245.384 104.214C252.016 108.015 255.145 109.992 260.802 113.987C261.823 121.469 262.004 125.358 261.588 132.902C255.334 130.009 251.832 128.482 244.553 125.524L244.248 125.4L244.211 125.727C243.229 134.24 242.516 138.268 240.474 146.721L240.417 146.957L240.651 147.021C248.237 149.099 252.302 150.224 258.22 151.862C258.99 152.076 259.791 152.297 260.636 152.531C258.642 160.697 257.128 164.784 253.528 172.123Z" stroke="black" stroke-opacity="0.2" stroke-width="0.5"/>
</g>
<path d="M160.242 152.684C222.628 169.4 276.217 171.718 279.932 157.854L305.592 164.73C301.036 181.734 235.271 178.894 158.703 158.377C82.1357 137.861 23.758 107.451 28.3176 90.4341L54.0025 97.3163C50.2876 111.18 97.8557 135.968 160.242 152.684Z" fill="#B1E0C6"/>
</g>
<defs>
<filter id="filter0_d_500_2534" x="63.834" y="133.502" width="46.2763" height="75.1021" filterUnits="userSpaceOnUse" color-interpolation-filters="sRGB">
<feFlood flood-opacity="0" result="BackgroundImageFix"/>
<feColorMatrix in="SourceAlpha" type="matrix" values="0 0 0 0 0 0 0 0 0 0 0 0 0 0 0 0 0 0 127 0" result="hardAlpha"/>
<feOffset dy="4"/>
<feGaussianBlur stdDeviation="5"/>
<feComposite in2="hardAlpha" operator="out"/>
<feColorMatrix type="matrix" values="0 0 0 0 0 0 0 0 0 0 0 0 0 0 0 0 0 0 0.7 0"/>
<feBlend mode="normal" in2="BackgroundImageFix" result="effect1_dropShadow_500_2534"/>
<feBlend mode="normal" in="SourceGraphic" in2="effect1_dropShadow_500_2534" result="shape"/>
</filter>
<filter id="filter1_d_500_2534" x="92.3247" y="143.118" width="49.6503" height="79.2817" filterUnits="userSpaceOnUse" color-interpolation-filters="sRGB">
<feFlood flood-opacity="0" result="BackgroundImageFix"/>
<feColorMatrix in="SourceAlpha" type="matrix" values="0 0 0 0 0 0 0 0 0 0 0 0 0 0 0 0 0 0 127 0" result="hardAlpha"/>
<feOffset dy="4"/>
<feGaussianBlur stdDeviation="5"/>
<feComposite in2="hardAlpha" operator="out"/>
<feColorMatrix type="matrix" values="0 0 0 0 0 0 0 0 0 0 0 0 0 0 0 0 0 0 0.7 0"/>
<feBlend mode="normal" in2="BackgroundImageFix" result="effect1_dropShadow_500_2534"/>
<feBlend mode="normal" in="SourceGraphic" in2="effect1_dropShadow_500_2534" result="shape"/>
</filter>
<filter id="filter2_d_500_2534" x="113.59" y="156.807" width="57.0304" height="82.3916" filterUnits="userSpaceOnUse" color-interpolation-filters="sRGB">
<feFlood flood-opacity="0" result="BackgroundImageFix"/>
<feColorMatrix in="SourceAlpha" type="matrix" values="0 0 0 0 0 0 0 0 0 0 0 0 0 0 0 0 0 0 127 0" result="hardAlpha"/>
<feOffset dy="4"/>
<feGaussianBlur stdDeviation="5"/>
<feComposite in2="hardAlpha" operator="out"/>
<feColorMatrix type="matrix" values="0 0 0 0 0 0 0 0 0 0 0 0 0 0 0 0 0 0 0.7 0"/>
<feBlend mode="normal" in2="BackgroundImageFix" result="effect1_dropShadow_500_2534"/>
<feBlend mode="normal" in="SourceGraphic" in2="effect1_dropShadow_500_2534" result="shape"/>
</filter>
<filter id="filter3_d_500_2534" x="153.488" y="167.424" width="63.4365" height="73.0654" filterUnits="userSpaceOnUse" color-interpolation-filters="sRGB">
<feFlood flood-opacity="0" result="BackgroundImageFix"/>
<feColorMatrix in="SourceAlpha" type="matrix" values="0 0 0 0 0 0 0 0 0 0 0 0 0 0 0 0 0 0 127 0" result="hardAlpha"/>
<feOffset dy="4"/>
<feGaussianBlur stdDeviation="5"/>
<feComposite in2="hardAlpha" operator="out"/>
<feColorMatrix type="matrix" values="0 0 0 0 0 0 0 0 0 0 0 0 0 0 0 0 0 0 0.7 0"/>
<feBlend mode="normal" in2="BackgroundImageFix" result="effect1_dropShadow_500_2534"/>
<feBlend mode="normal" in="SourceGraphic" in2="effect1_dropShadow_500_2534" result="shape"/>
</filter>
<filter id="filter4_d_500_2534" x="180.672" y="173.153" width="76.2115" height="63.9512" filterUnits="userSpaceOnUse" color-interpolation-filters="sRGB">
<feFlood flood-opacity="0" result="BackgroundImageFix"/>
<feColorMatrix in="SourceAlpha" type="matrix" values="0 0 0 0 0 0 0 0 0 0 0 0 0 0 0 0 0 0 127 0" result="hardAlpha"/>
<feOffset dy="4"/>
<feGaussianBlur stdDeviation="5"/>
<feComposite in2="hardAlpha" operator="out"/>
<feColorMatrix type="matrix" values="0 0 0 0 0 0 0 0 0 0 0 0 0 0 0 0 0 0 0.7 0"/>
<feBlend mode="normal" in2="BackgroundImageFix" result="effect1_dropShadow_500_2534"/>
<feBlend mode="normal" in="SourceGraphic" in2="effect1_dropShadow_500_2534" result="shape"/>
</filter>
<filter id="filter5_d_500_2534" x="18.0677" y="73.3325" width="297.774" height="116.502" filterUnits="userSpaceOnUse" color-interpolation-filters="sRGB">
<feFlood flood-opacity="0" result="BackgroundImageFix"/>
<feColorMatrix in="SourceAlpha" type="matrix" values="0 0 0 0 0 0 0 0 0 0 0 0 0 0 0 0 0 0 127 0" result="hardAlpha"/>
<feOffset dy="4"/>
<feGaussianBlur stdDeviation="5"/>
<feComposite in2="hardAlpha" operator="out"/>
<feColorMatrix type="matrix" values="0 0 0 0 0 0 0 0 0 0 0 0 0 0 0 0 0 0 0.7 0"/>
<feBlend mode="normal" in2="BackgroundImageFix" result="effect1_dropShadow_500_2534"/>
<feBlend mode="normal" in="SourceGraphic" in2="effect1_dropShadow_500_2534" result="shape"/>
</filter>
<filter id="filter6_d_500_2534" x="64.7078" y="30.6543" width="85.4525" height="117.839" filterUnits="userSpaceOnUse" color-interpolation-filters="sRGB">
<feFlood flood-opacity="0" result="BackgroundImageFix"/>
<feColorMatrix in="SourceAlpha" type="matrix" values="0 0 0 0 0 0 0 0 0 0 0 0 0 0 0 0 0 0 127 0" result="hardAlpha"/>
<feOffset dy="4"/>
<feGaussianBlur stdDeviation="5"/>
<feComposite in2="hardAlpha" operator="out"/>
<feColorMatrix type="matrix" values="0 0 0 0 0 0 0 0 0 0 0 0 0 0 0 0 0 0 0.7 0"/>
<feBlend mode="normal" in2="BackgroundImageFix" result="effect1_dropShadow_500_2534"/>
<feBlend mode="normal" in="SourceGraphic" in2="effect1_dropShadow_500_2534" result="shape"/>
</filter>
<filter id="filter7_d_500_2534" x="109.766" y="26.5181" width="83.4626" height="138.377" filterUnits="userSpaceOnUse" color-interpolation-filters="sRGB">
<feFlood flood-opacity="0" result="BackgroundImageFix"/>
<feColorMatrix in="SourceAlpha" type="matrix" values="0 0 0 0 0 0 0 0 0 0 0 0 0 0 0 0 0 0 127 0" result="hardAlpha"/>
<feOffset dy="4"/>
<feGaussianBlur stdDeviation="5"/>
<feComposite in2="hardAlpha" operator="out"/>
<feColorMatrix type="matrix" values="0 0 0 0 0 0 0 0 0 0 0 0 0 0 0 0 0 0 0.7 0"/>
<feBlend mode="normal" in2="BackgroundImageFix" result="effect1_dropShadow_500_2534"/>
<feBlend mode="normal" in="SourceGraphic" in2="effect1_dropShadow_500_2534" result="shape"/>
</filter>
<filter id="filter8_d_500_2534" x="158.91" y="33.3853" width="78.8523" height="143.765" filterUnits="userSpaceOnUse" color-interpolation-filters="sRGB">
<feFlood flood-opacity="0" result="BackgroundImageFix"/>
<feColorMatrix in="SourceAlpha" type="matrix" values="0 0 0 0 0 0 0 0 0 0 0 0 0 0 0 0 0 0 127 0" result="hardAlpha"/>
<feOffset dy="4"/>
<feGaussianBlur stdDeviation="5"/>
<feComposite in2="hardAlpha" operator="out"/>
<feColorMatrix type="matrix" values="0 0 0 0 0 0 0 0 0 0 0 0 0 0 0 0 0 0 0.7 0"/>
<feBlend mode="normal" in2="BackgroundImageFix" result="effect1_dropShadow_500_2534"/>
<feBlend mode="normal" in="SourceGraphic" in2="effect1_dropShadow_500_2534" result="shape"/>
</filter>
<filter id="filter9_d_500_2534" x="210.129" y="53.3145" width="61.9171" height="133.069" filterUnits="userSpaceOnUse" color-interpolation-filters="sRGB">
<feFlood flood-opacity="0" result="BackgroundImageFix"/>
<feColorMatrix in="SourceAlpha" type="matrix" values="0 0 0 0 0 0 0 0 0 0 0 0 0 0 0 0 0 0 127 0" result="hardAlpha"/>
<feOffset dy="4"/>
<feGaussianBlur stdDeviation="5"/>
<feComposite in2="hardAlpha" operator="out"/>
<feColorMatrix type="matrix" values="0 0 0 0 0 0 0 0 0 0 0 0 0 0 0 0 0 0 0.7 0"/>
<feBlend mode="normal" in2="BackgroundImageFix" result="effect1_dropShadow_500_2534"/>
<feBlend mode="normal" in="SourceGraphic" in2="effect1_dropShadow_500_2534" result="shape"/>
</filter>
<clipPath id="clip0_500_2534">
<rect width="289" height="202" fill="white" transform="translate(52.2814) rotate(15)"/>
</clipPath>
</defs>
</svg>
